<?xml version="1.0" encoding="UTF-8" standalone="no"?>
<!-- Created with Inkscape (http://www.inkscape.org/) -->

<svg
   width="112.84753mm"
   height="59.103519mm"
   viewBox="0 0 112.84751 59.103519"
   version="1.1"
   id="svg1"
   sodipodi:docname="battery-charge.svg"
   inkscape:version="1.4 (e7c3feb100, 2024-10-09)"
   xmlns:inkscape="http://www.inkscape.org/namespaces/inkscape"
   xmlns:sodipodi="http://sodipodi.sourceforge.net/DTD/sodipodi-0.dtd"
   xmlns="http://www.w3.org/2000/svg"
   xmlns:svg="http://www.w3.org/2000/svg">
  <sodipodi:namedview
     id="namedview1"
     pagecolor="#ffffff"
     bordercolor="#000000"
     borderopacity="0.25"
     inkscape:showpageshadow="2"
     inkscape:pageopacity="0.0"
     inkscape:pagecheckerboard="0"
     inkscape:deskcolor="#d1d1d1"
     inkscape:document-units="mm"
     inkscape:zoom="5.8638458"
     inkscape:cx="191.59781"
     inkscape:cy="123.98007"
     inkscape:window-width="1876"
     inkscape:window-height="1117"
     inkscape:window-x="0"
     inkscape:window-y="0"
     inkscape:window-maximized="1"
     inkscape:current-layer="layer1" />
  <defs
     id="defs1" />
  <g
     inkscape:label="Layer 1"
     inkscape:groupmode="layer"
     id="layer1"
     transform="translate(-55.999926,-118.94833)">
    <path
       style="fill:#74bdd0;stroke-linecap:round;stroke-linejoin:round"
       d="m 103.4375,135.54102 -18.074219,8.14843 c -2.657524,1.19769 -3.840718,4.32315 -2.642578,6.98047 0.835021,1.85113 2.605463,2.98642 4.501103,3.09936 2.781991,0.16575 13.106324,-2.11667 13.106324,-2.11667 v 4.99583 c -7.8e-4,3.83207 3.95387,6.38761 7.44726,4.8125 l 18.07422,-8.15039 c 2.65752,-1.19769 3.84072,-4.32315 2.64258,-6.98047 -0.88696,-1.96627 -2.82925,-3.1085 -4.85607,-3.1085 -4.28391,0 -12.75331,1.5875 -12.75331,1.5875 v -4.45752 c -0.001,-3.82992 -3.95324,-6.38335 -7.44531,-4.81054 z"
       id="path1"
       sodipodi:nodetypes="cccscccccsccc" />
    <path
       id="rect1"
       style="fill:none;fill-opacity:1;stroke:#74bdd0;stroke-width:8.91537;stroke-dasharray:none;stroke-opacity:1;stroke-linecap:round;stroke-linejoin:round"
       d="m 62.437335,123.40601 c -1.096731,0 -1.979724,1.1192 -1.979724,2.50941 v 45.16933 c 0,1.39021 0.882993,2.50941 1.979724,2.50941 h 85.125555 c 1.09673,0 1.97921,-1.1192 1.97921,-2.50941 v -9.94203 h 11.26132 c 1.98689,0 3.58635,-1.30753 3.58635,-2.93212 v -19.42103 c 0,-1.62459 -1.59946,-2.93264 -3.58635,-2.93264 H 149.5421 v -9.94151 c 0,-1.39021 -0.88248,-2.50941 -1.97921,-2.50941 z" />
  </g>
</svg>
